<svg xmlns="http://www.w3.org/2000/svg" viewBox="0 0 128 128" role="img" aria-labelledby="title desc">
  <title id="title">eslint-plugin-stylelint-2 logo</title>
  <desc id="desc">Rounded gradient card using the preset palette with the Stylelint tux icon, accent chips, and a badge for version 2.</desc>
  <defs>
    <linearGradient id="outerGradient" x1="8%" y1="10%" x2="94%" y2="92%">
      <stop offset="0%" stop-color="#fde047" />
      <stop offset="42%" stop-color="#a855f7" />
      <stop offset="100%" stop-color="#22d3ee" />
    </linearGradient>
    <linearGradient id="panelGradient" x1="10%" y1="8%" x2="86%" y2="100%">
      <stop offset="0%" stop-color="#ffffff" stop-opacity="0.2" />
      <stop offset="100%" stop-color="#ffffff" stop-opacity="0.08" />
    </linearGradient>
    <linearGradient id="badgeRingGradient" x1="0%" y1="0%" x2="100%" y2="100%">
      <stop offset="0%" stop-color="#fde047" />
      <stop offset="55%" stop-color="#a855f7" />
      <stop offset="100%" stop-color="#22d3ee" />
    </linearGradient>
    <radialGradient id="glowGradient" cx="50%" cy="36%" r="70%">
      <stop offset="0%" stop-color="#ffffff" stop-opacity="0.34" />
      <stop offset="100%" stop-color="#ffffff" stop-opacity="0" />
    </radialGradient>
    <filter id="cardShadow" x="-20%" y="-20%" width="140%" height="140%">
      <feDropShadow dx="0" dy="6" stdDeviation="7" flood-color="#170724" flood-opacity="0.28" />
    </filter>
  </defs>
  <rect width="128" height="128" rx="28" fill="url(#outerGradient)" />
  <rect width="128" height="128" rx="28" fill="url(#glowGradient)" />
  <rect x="16" y="16" width="96" height="96" rx="22" fill="url(#panelGradient)" stroke="#ffffff" stroke-opacity="0.12" />
  <g transform="translate(28 24)">
    <rect x="0" y="0" width="72" height="80" rx="18" fill="#ffffff" filter="url(#cardShadow)" />
    <rect x="11" y="9" width="14" height="6" rx="3" fill="#fde047" />
    <rect x="29" y="9" width="14" height="6" rx="3" fill="#a855f7" />
    <rect x="47" y="9" width="14" height="6" rx="3" fill="#22d3ee" />
    <g transform="translate(10 18) scale(0.1262135922)" fill="#09090b" fill-rule="evenodd">
      <path d="M208.805 393.054c45.057-161.12 43.75-161.848 76.32-276.73l7.832 4.523c4.255 2.458 7.738.448 7.738-4.455V61.606c8.643-30.27 15.416-53.66 17.4-60.693h35.287L412 55.217l-38.498 33.27 29.11 31.473-191.86 273.094c-.938 1.542-2.244 1.19-1.947 0zm20.96-347.278c1.733 0 3.148.958 3.148 2.147V76c0 1.186-1.415 2.15-3.147 2.15H182.37c-1.742 0-3.153-.96-3.153-2.15V47.923c0-1.185 1.41-2.147 3.153-2.147h47.396z" />
      <path d="M288.265 14.688l-52.14 30.1c.605.92.973 1.98.973 3.136v28.078c0 1.457-.565 2.77-1.496 3.83l52.663 30.402c3.59 2.073 6.535.377 6.535-3.764V18.456c0-4.145-2.944-5.836-6.535-3.768zM175.03 76V47.923c0-1.15.368-2.21.966-3.13l-52.14-30.105c-3.588-2.068-6.53-.376-6.53 3.768v88.013c0 4.14 2.938 5.84 6.53 3.76l52.66-30.405c-.926-1.06-1.487-2.37-1.487-3.827z" />
      <path d="M201.248 393.054h1.947c-45.05-161.12-43.753-161.848-76.32-276.73l-7.833 4.523c-4.253 2.458-7.737.448-7.737-4.455V61.606C102.66 31.336 95.89 7.946 93.9.913H58.617L0 55.217l38.494 33.27-29.11 31.473 191.864 273.094z" />
      <circle cx="204.572" cy="122.538" r="14.231" />
      <circle cx="204.572" cy="207.156" r="14.231" />
      <circle cx="204.572" cy="291.785" r="14.23" />
    </g>
  </g>
  <g transform="translate(88 88)">
    <circle cx="0" cy="0" r="15" fill="#faf5ff" />
    <circle cx="0" cy="0" r="13.5" fill="none" stroke="url(#badgeRingGradient)" stroke-width="3" />
    <text x="0" y="5" text-anchor="middle" font-size="15" font-family="Segoe UI, Inter, Arial, sans-serif" font-weight="800" fill="#4c1d95">2</text>
  </g>
</svg>
